<?xml version="1.0" encoding="UTF-8" standalone="no"?>
<svg xmlns="http://www.w3.org/2000/svg" xmlns:xlink="http://www.w3.org/1999/xlink" version="1.1" viewBox="0 0 400 400">
  <defs>
    <linearGradient id="robotGradient" x1="0%" y1="0%" x2="100%" y2="100%">
      <stop offset="0%" style="stop-color:#4f39f6;stop-opacity:1" />
      <stop offset="100%" style="stop-color:#00c2ff;stop-opacity:1" />
    </linearGradient>
    <filter id="glow" x="-20%" y="-20%" width="140%" height="140%">
      <feGaussianBlur stdDeviation="5" result="blur" />
      <feComposite in="SourceGraphic" in2="blur" operator="over" />
    </filter>
  </defs>
  
  <!-- Robot body -->
  <g transform="translate(0,10)">
    <!-- Head -->
    <ellipse cx="200" cy="100" rx="70" ry="80" fill="url(#robotGradient)" />
    
    <!-- Eyes -->
    <circle cx="170" cy="90" r="15" fill="#000" />
    <circle cx="230" cy="90" r="15" fill="#000" />
    <circle cx="170" cy="90" r="7" fill="#00eeff" filter="url(#glow)" />
    <circle cx="230" cy="90" r="7" fill="#00eeff" filter="url(#glow)" />
    
    <!-- Mouth -->
    <path d="M170,130 Q200,150 230,130" stroke="#000" stroke-width="3" fill="none" />
    
    <!-- Neck -->
    <rect x="185" y="180" width="30" height="30" fill="url(#robotGradient)" />
    <line x1="185" y1="190" x2="215" y2="190" stroke="#000" stroke-width="2" />
    <line x1="185" y1="200" x2="215" y2="200" stroke="#000" stroke-width="2" />
    
    <!-- Body -->
    <rect x="130" y="210" width="140" height="100" rx="20" ry="20" fill="url(#robotGradient)" />
    <circle cx="160" cy="240" r="15" fill="#000" />
    <circle cx="240" cy="240" r="15" fill="#000" />
    
    <!-- Arms -->
    <rect x="80" y="220" width="50" height="20" rx="10" ry="10" fill="url(#robotGradient)" />
    <rect x="270" y="220" width="50" height="20" rx="10" ry="10" fill="url(#robotGradient)" />
    
    <!-- Forearms -->
    <rect x="50" y="220" width="30" height="20" rx="10" ry="10" fill="url(#robotGradient)" />
    <rect x="320" y="220" width="30" height="20" rx="10" ry="10" fill="url(#robotGradient)" />
    
    <!-- Hands -->
    <circle cx="50" cy="230" r="15" fill="url(#robotGradient)" />
    <circle cx="350" cy="230" r="15" fill="url(#robotGradient)" />
    
    <!-- Details -->
    <rect x="160" y="270" width="80" height="30" rx="5" ry="5" fill="#000" />
    <rect x="165" y="275" width="70" height="20" rx="3" ry="3" fill="#333" />
  </g>
</svg>
