<svg xmlns="http://www.w3.org/2000/svg" width="800" height="600" viewBox="0 0 800 600" fill="none">
  <path d="M400 500C553.4 500 677.8 488.6 677.8 474.6C677.8 460.6 553.4 449.2 400 449.2C246.6 449.2 122.2 460.6 122.2 474.6C122.2 488.6 246.6 500 400 500Z" fill="#F2F2F2"/>
  <path d="M400 474.6C553.4 474.6 677.8 463.2 677.8 449.2C677.8 435.2 553.4 423.8 400 423.8C246.6 423.8 122.2 435.2 122.2 449.2C122.2 463.2 246.6 474.6 400 474.6Z" fill="#E6E6E6"/>
  <path d="M189.5 249.4H610.5V449.2H189.5V249.4Z" fill="#F2F2F2"/>
  <path d="M400 449.2C446.9 449.2 485 447.2 485 444.7C485 442.2 446.9 440.2 400 440.2C353.1 440.2 315 442.2 315 444.7C315 447.2 353.1 449.2 400 449.2Z" fill="#E6E6E6"/>
  <path d="M610.5 249.4H189.5V269.9H610.5V249.4Z" fill="#4338CA"/>
  <path d="M218.4 259.7C222.5 259.7 225.8 256.4 225.8 252.3C225.8 248.2 222.5 244.9 218.4 244.9C214.3 244.9 211 248.2 211 252.3C211 256.4 214.3 259.7 218.4 259.7Z" fill="#FFFFFF"/>
  <path d="M240.5 259.7C244.6 259.7 247.9 256.4 247.9 252.3C247.9 248.2 244.6 244.9 240.5 244.9C236.4 244.9 233.1 248.2 233.1 252.3C233.1 256.4 236.4 259.7 240.5 259.7Z" fill="#FFFFFF"/>
  <path d="M262.6 259.7C266.7 259.7 270 256.4 270 252.3C270 248.2 266.7 244.9 262.6 244.9C258.5 244.9 255.2 248.2 255.2 252.3C255.2 256.4 258.5 259.7 262.6 259.7Z" fill="#FFFFFF"/>
  <path d="M610.5 269.9H189.5V449.2H610.5V269.9Z" fill="white"/>
  <path d="M358.1 363.5H442V377.6H358.1V363.5Z" fill="#E6E6E6"/>
  <path d="M358.1 392.5H442V406.6H358.1V392.5Z" fill="#E6E6E6"/>
  <path d="M358.1 334.5H442V348.6H358.1V334.5Z" fill="#E6E6E6"/>
  <path d="M358.1 305.5H442V319.6H358.1V305.5Z" fill="#E6E6E6"/>
  <path d="M307.1 305.5H339.1V337.5H307.1V305.5Z" fill="#4338CA"/>
  <path d="M307.1 363.5H339.1V395.5H307.1V363.5Z" fill="#4338CA"/>
  <path d="M307.1 334.5H339.1V348.6H307.1V334.5Z" fill="#6366F1"/>
  <path d="M307.1 392.5H339.1V406.6H307.1V392.5Z" fill="#6366F1"/>
  <path d="M477.5 138.6C477.5 138.6 477.5 138.6 477.5 138.6C477.5 138.6 477.5 138.6 477.5 138.6Z" fill="#F2F2F2"/>
  <path d="M558 190.2C558 190.2 558 190.2 558 190.2C558 190.2 558 190.2 558 190.2Z" fill="#F2F2F2"/>
  <path d="M341.4 138.6C341.4 138.6 341.4 138.6 341.4 138.6C341.4 138.6 341.4 138.6 341.4 138.6Z" fill="#F2F2F2"/>
  <path d="M421.9 190.2C421.9 190.2 421.9 190.2 421.9 190.2C421.9 190.2 421.9 190.2 421.9 190.2Z" fill="#F2F2F2"/>
  <path d="M139.2 138.6C139.2 138.6 139.2 138.6 139.2 138.6C139.2 138.6 139.2 138.6 139.2 138.6Z" fill="#F2F2F2"/>
  <path d="M219.7 190.2C219.7 190.2 219.7 190.2 219.7 190.2C219.7 190.2 219.7 190.2 219.7 190.2Z" fill="#F2F2F2"/>
  <path d="M442.5 138.6C442.5 138.6 442.5 138.6 442.5 138.6C442.5 138.6 442.5 138.6 442.5 138.6Z" fill="#F2F2F2"/>
  <path d="M523 190.2C523 190.2 523 190.2 523 190.2C523 190.2 523 190.2 523 190.2Z" fill="#F2F2F2"/>
  <path d="M240.3 138.6C240.3 138.6 240.3 138.6 240.3 138.6C240.3 138.6 240.3 138.6 240.3 138.6Z" fill="#F2F2F2"/>
  <path d="M320.8 190.2C320.8 190.2 320.8 190.2 320.8 190.2C320.8 190.2 320.8 190.2 320.8 190.2Z" fill="#F2F2F2"/>
  <circle cx="400" cy="320" r="50" fill="#4338CA" opacity="0.2"/>
  <path d="M415 305C415 305 415 305 415 305C415 305 415 305 415 305Z" fill="#F2F2F2"/>
  <path d="M400 290C389 290 380 299 380 310C380 319 386 326 394 328V335H406V328C414 326 420 319 420 310C420 299 411 290 400 290ZM400 325C392 325 385 318 385 310C385 302 392 295 400 295C408 295 415 302 415 310C415 318 408 325 400 325Z" fill="#4338CA"/>
  <path d="M397 335V345H403V335H397Z" fill="#4338CA"/>
</svg>
