<?xml version="1.0" encoding="UTF-8"?>
<svg width="512" height="512" viewBox="0 0 512 512" fill="none" xmlns="http://www.w3.org/2000/svg">
    <!-- Background Circle -->
    <circle cx="256" cy="256" r="248" fill="#4F46E5" />
    <circle cx="256" cy="256" r="240" fill="#6366F1" />

    <!-- Robot Head -->
    <g transform="translate(128, 96)">
        <!-- Head Base -->
        <rect x="40" y="40" width="176" height="160" rx="24" fill="#E2E8F0" filter="url(#shadow)" />
        <rect x="48" y="48" width="160" height="144" rx="20" fill="#F8FAFC" />

        <!-- Eyes -->
        <circle cx="96" cy="96" r="24" fill="#4F46E5" filter="url(#glow)" />
        <circle cx="160" cy="96" r="24" fill="#4F46E5" filter="url(#glow)" />
        <circle cx="96" cy="96" r="12" fill="#ffffff" />
        <circle cx="160" cy="96" r="12" fill="#ffffff" />

        <!-- Antenna -->
        <rect x="116" y="8" width="24" height="40" rx="12" fill="#E2E8F0" />
        <circle cx="128" cy="8" r="16" fill="#4F46E5" filter="url(#glow)" />

        <!-- Mouth -->
        <rect x="88" y="144" width="80" height="16" rx="8" fill="#E2E8F0" />
        <rect x="96" y="148" width="64" height="8" rx="4" fill="#4F46E5" />
    </g>

    <!-- Pen -->
    <g transform="translate(300, 220) rotate(45)">
        <!-- Pen Body -->
        <rect x="0" y="0" width="120" height="24" rx="12" fill="#1E293B" />
        <!-- Pen Tip -->
        <path d="M0,12 L-24,24 L-24,0 Z" fill="#94A3B8" />
        <!-- Pen Grip -->
        <rect x="80" y="0" width="32" height="24" rx="8" fill="#475569" />
    </g>

    <!-- Robot Arm -->
    <path d="M240,280 C240,280 280,300 320,260" stroke="#E2E8F0" stroke-width="24" stroke-linecap="round" />

    <!-- Filters -->
    <defs>
        <filter id="shadow" x="-4" y="-4" width="110%" height="110%">
            <feDropShadow dx="2" dy="2" stdDeviation="4" flood-opacity="0.2"/>
        </filter>
        <filter id="glow" x="-50%" y="-50%" width="200%" height="200%">
            <feGaussianBlur in="SourceGraphic" stdDeviation="4" />
        </filter>
    </defs>
</svg>
